<svg xmlns="http://www.w3.org/2000/svg" viewBox="0 0 694.2 106.93"><defs><style>.cls-1{fill:#26af4b;}.cls-2{fill:#202326;}.cls-3{fill:#fff;}</style></defs><title>Asset 1</title><g id="Layer_2" data-name="Layer 2"><g id="Layer_1-2" data-name="Layer 1"><rect class="cls-1" x="414.16" width="280.04" height="106.93"/><rect class="cls-2" y="14.61" width="19.58" height="78.32"/><polygon class="cls-2" points="41.68 53.77 78.04 92.93 55.66 92.93 22.1 60.76 22.1 46.77 55.66 14.61 78.04 14.61 41.68 53.77"/><polygon class="cls-2" points="100.14 42.58 133.76 42.52 133.76 62.16 100.14 62.16 100.14 92.93 80.56 92.93 80.56 14.61 100.14 14.61 100.14 42.58"/><path class="cls-2" d="M136.84,67.75V14.61h19.58V67.75a5.63,5.63,0,0,0,5.59,5.6H173.2V14.61h19.58V92.93L162,92.87v.06a25.21,25.21,0,0,1-25.17-25.18"/><path class="cls-2" d="M220.75,73.35a19.58,19.58,0,0,0,19.58-19.58,19.56,19.56,0,0,0-19.58-19.58H201.17V14.61h19.58a37.73,37.73,0,0,1,27.69,11.46,37.73,37.73,0,0,1,11.47,27.7,37.73,37.73,0,0,1-11.47,27.69,37.74,37.74,0,0,1-27.69,11.47H201.17V42.58h19.58Z"/><path class="cls-2" d="M290.46,65h-28l-.06-19.58h28a5.57,5.57,0,0,0,3.94-9.53,5.38,5.38,0,0,0-3.94-1.66h-28V14.6h30.76A20.45,20.45,0,0,1,309.09,22a25.9,25.9,0,0,1,6.54,17.79A26,26,0,0,1,311,55.11a26.11,26.11,0,0,1,4.7,15.44l-.06,22.38H296.05V70.55a5.63,5.63,0,0,0-5.59-5.6"/><path class="cls-2" d="M385.23,26.07a37.76,37.76,0,0,1,11.46,27.7,37.76,37.76,0,0,1-11.46,27.69,39.17,39.17,0,0,1-55.39,0,37.73,37.73,0,0,1-11.47-27.69,37.73,37.73,0,0,1,11.47-27.7,39.19,39.19,0,0,1,55.39,0M371.38,67.61a18.87,18.87,0,0,0,5.73-13.84,19.58,19.58,0,0,0-39.16,0,19.58,19.58,0,0,0,33.43,13.84"/><path class="cls-3" d="M429.48,14.61h55.94V34.19H429.48Zm0,53.14V42.58h19.58V67.75a5.63,5.63,0,0,0,5.59,5.6h30.77V92.93l-30.77-.06v.06a25.23,25.23,0,0,1-25.17-25.18"/><path class="cls-3" d="M543.44,34.19H490.23V14.61h53.21ZM509.81,73.35h33.63V92.93H490.23V42.58h53.21V62.16H509.81Z"/><path class="cls-3" d="M585.12,14.61h14V34.19h-14a19.56,19.56,0,0,0-19.58,19.58,19.58,19.58,0,0,0,19.58,19.58h14V92.93h-14a37.77,37.77,0,0,1-27.7-11.47A37.76,37.76,0,0,1,546,53.77a37.76,37.76,0,0,1,11.46-27.7,37.76,37.76,0,0,1,27.7-11.46"/><polygon class="cls-3" points="623.49 42.58 657.11 42.52 657.11 62.16 623.49 62.16 623.49 92.93 603.91 92.93 603.91 14.61 623.49 14.61 623.49 42.58"/><rect class="cls-3" x="660.19" y="14.61" width="19.58" height="78.32"/></g></g></svg>