<?xml version="1.0" encoding="utf-8"?>
<!-- Generator: Adobe Illustrator 23.0.0, SVG Export Plug-In . SVG Version: 6.00 Build 0)  -->
<svg version="1.1" id="Layer_1" xmlns="http://www.w3.org/2000/svg" xmlns:xlink="http://www.w3.org/1999/xlink" x="0px" y="0px"
	 viewBox="0 0 400 400" style="enable-background:new 0 0 400 400;" xml:space="preserve">
<style type="text/css">
	.st0{fill:#27B14B;}
	.st1{fill:#FFFFFF;}
</style>
<g>
	<path class="st0" d="M398.23,200.22c0,109.14-88.47,197.61-197.61,197.61S3,309.37,3,200.22S91.47,2.61,200.61,2.61
		C309.74,2.61,398.23,91.08,398.23,200.22z"/>
	<g>
		<g>
			<path class="st1" d="M118.57,200.22l78.13,84.14h-48.07L76.5,215.26V185.2l72.12-69.11h48.07L118.57,200.22z"/>
		</g>
		<g>
			<path class="st1" d="M204.52,116.08h120.2v42.07h-120.2V116.08z M204.52,230.28v-54.09h42.07v54.09c0,3.28,1.18,6.11,3.54,8.47
				c2.37,2.37,5.19,3.55,8.48,3.55h66.11v42.07l-66.11-0.12v0.12c-14.91,0-27.65-5.28-38.23-15.86
				C209.81,257.91,204.52,245.17,204.52,230.28z"/>
		</g>
	</g>
</g>
</svg>
